<mxfile host="app.diagrams.net" modified="2023-11-23T17:08:40.293Z" agent="Mozilla/5.0 (Windows NT 10.0; Win64; x64) AppleWebKit/537.36 (KHTML, like Gecko) Chrome/119.0.0.0 Safari/537.36" etag="p4PvK8TyYK_n2yMLkT6X" version="22.1.3" type="device" pages="2">
  <diagram name="Page-1" id="8OjxHoiy13hl8W42oV4d">
    <mxGraphModel dx="1257" dy="683" grid="1" gridSize="10" guides="1" tooltips="1" connect="1" arrows="1" fold="1" page="1" pageScale="1" pageWidth="827" pageHeight="1169" math="0" shadow="0">
      <root>
        <mxCell id="0" />
        <mxCell id="1" parent="0" />
        <mxCell id="h7-JMp7rUtSv94RqNVS6-1" value="Prijavljeni korisnik&lt;br&gt;" style="shape=umlActor;verticalLabelPosition=bottom;verticalAlign=top;html=1;outlineConnect=0;" parent="1" vertex="1">
          <mxGeometry x="850" y="40" width="30" height="60" as="geometry" />
        </mxCell>
        <mxCell id="_oATwqAIxqEpcUHxz-gz-1" value="Bilo koja stranica web aplikacije" style="rounded=0;whiteSpace=wrap;html=1;" parent="1" vertex="1">
          <mxGeometry x="950" y="40" width="120" height="60" as="geometry" />
        </mxCell>
        <mxCell id="_oATwqAIxqEpcUHxz-gz-2" value="Forma za prijavljivanje" style="rounded=0;whiteSpace=wrap;html=1;" parent="1" vertex="1">
          <mxGeometry x="1160" y="40" width="120" height="60" as="geometry" />
        </mxCell>
        <mxCell id="_oATwqAIxqEpcUHxz-gz-3" value="Skripta za logovanje&lt;br&gt;" style="rounded=0;whiteSpace=wrap;html=1;" parent="1" vertex="1">
          <mxGeometry x="1340" y="40" width="120" height="60" as="geometry" />
        </mxCell>
        <mxCell id="_oATwqAIxqEpcUHxz-gz-4" value="Baza podataka" style="shape=umlActor;verticalLabelPosition=bottom;verticalAlign=top;html=1;outlineConnect=0;" parent="1" vertex="1">
          <mxGeometry x="2000" y="30" width="30" height="60" as="geometry" />
        </mxCell>
        <mxCell id="_oATwqAIxqEpcUHxz-gz-5" value="" style="endArrow=none;dashed=1;html=1;rounded=0;" parent="1" source="_oATwqAIxqEpcUHxz-gz-10" edge="1">
          <mxGeometry width="50" height="50" relative="1" as="geometry">
            <mxPoint x="860" y="1071" as="sourcePoint" />
            <mxPoint x="865" y="110" as="targetPoint" />
          </mxGeometry>
        </mxCell>
        <mxCell id="_oATwqAIxqEpcUHxz-gz-6" value="" style="endArrow=none;dashed=1;html=1;rounded=0;entryX=0.417;entryY=1;entryDx=0;entryDy=0;entryPerimeter=0;exitX=0.5;exitY=1;exitDx=0;exitDy=0;" parent="1" source="_oATwqAIxqEpcUHxz-gz-21" target="_oATwqAIxqEpcUHxz-gz-1" edge="1">
          <mxGeometry width="50" height="50" relative="1" as="geometry">
            <mxPoint x="1000" y="1062" as="sourcePoint" />
            <mxPoint x="1240" y="200" as="targetPoint" />
          </mxGeometry>
        </mxCell>
        <mxCell id="_oATwqAIxqEpcUHxz-gz-7" value="" style="endArrow=none;dashed=1;html=1;rounded=0;entryX=0.5;entryY=1;entryDx=0;entryDy=0;" parent="1" source="piYtrcWUBoW7gZghlnNr-17" target="_oATwqAIxqEpcUHxz-gz-2" edge="1">
          <mxGeometry width="50" height="50" relative="1" as="geometry">
            <mxPoint x="1220" y="1054" as="sourcePoint" />
            <mxPoint x="1240" y="180" as="targetPoint" />
          </mxGeometry>
        </mxCell>
        <mxCell id="_oATwqAIxqEpcUHxz-gz-8" value="" style="endArrow=none;dashed=1;html=1;rounded=0;exitX=0;exitY=0.75;exitDx=0;exitDy=0;" parent="1" edge="1" source="piYtrcWUBoW7gZghlnNr-38">
          <mxGeometry width="50" height="50" relative="1" as="geometry">
            <mxPoint x="1989.9999999999995" y="478.45056910569116" as="sourcePoint" />
            <mxPoint x="1400" y="102" as="targetPoint" />
          </mxGeometry>
        </mxCell>
        <mxCell id="_oATwqAIxqEpcUHxz-gz-9" value="" style="endArrow=none;dashed=1;html=1;rounded=0;" parent="1" edge="1" source="piYtrcWUBoW7gZghlnNr-23">
          <mxGeometry width="50" height="50" relative="1" as="geometry">
            <mxPoint x="2014.29" y="1082" as="sourcePoint" />
            <mxPoint x="2014.29" y="130" as="targetPoint" />
          </mxGeometry>
        </mxCell>
        <mxCell id="_oATwqAIxqEpcUHxz-gz-11" value="" style="endArrow=none;dashed=1;html=1;rounded=0;" parent="1" source="_oATwqAIxqEpcUHxz-gz-12" target="_oATwqAIxqEpcUHxz-gz-10" edge="1">
          <mxGeometry width="50" height="50" relative="1" as="geometry">
            <mxPoint x="860" y="1071" as="sourcePoint" />
            <mxPoint x="860" y="120" as="targetPoint" />
          </mxGeometry>
        </mxCell>
        <mxCell id="_oATwqAIxqEpcUHxz-gz-10" value="" style="rounded=0;whiteSpace=wrap;html=1;direction=south;strokeColor=#FF1717;" parent="1" vertex="1">
          <mxGeometry x="860" y="150" width="10" height="40" as="geometry" />
        </mxCell>
        <mxCell id="_oATwqAIxqEpcUHxz-gz-13" value="" style="endArrow=none;dashed=1;html=1;rounded=0;" parent="1" source="_oATwqAIxqEpcUHxz-gz-14" target="_oATwqAIxqEpcUHxz-gz-12" edge="1">
          <mxGeometry width="50" height="50" relative="1" as="geometry">
            <mxPoint x="860" y="1071" as="sourcePoint" />
            <mxPoint x="865" y="190" as="targetPoint" />
          </mxGeometry>
        </mxCell>
        <mxCell id="_oATwqAIxqEpcUHxz-gz-12" value="" style="rounded=0;whiteSpace=wrap;html=1;direction=south;strokeColor=#FF1717;" parent="1" vertex="1">
          <mxGeometry x="860" y="270" width="10" height="40" as="geometry" />
        </mxCell>
        <mxCell id="_oATwqAIxqEpcUHxz-gz-15" value="" style="endArrow=none;dashed=1;html=1;rounded=0;" parent="1" source="_oATwqAIxqEpcUHxz-gz-16" target="_oATwqAIxqEpcUHxz-gz-14" edge="1">
          <mxGeometry width="50" height="50" relative="1" as="geometry">
            <mxPoint x="860" y="1071" as="sourcePoint" />
            <mxPoint x="865" y="290" as="targetPoint" />
          </mxGeometry>
        </mxCell>
        <mxCell id="_oATwqAIxqEpcUHxz-gz-14" value="" style="rounded=0;whiteSpace=wrap;html=1;direction=south;strokeColor=#FF1717;" parent="1" vertex="1">
          <mxGeometry x="860" y="340" width="10" height="40" as="geometry" />
        </mxCell>
        <mxCell id="_oATwqAIxqEpcUHxz-gz-17" value="" style="endArrow=none;dashed=1;html=1;rounded=0;" parent="1" target="_oATwqAIxqEpcUHxz-gz-16" edge="1" source="piYtrcWUBoW7gZghlnNr-183">
          <mxGeometry width="50" height="50" relative="1" as="geometry">
            <mxPoint x="880" y="1680" as="sourcePoint" />
            <mxPoint x="865" y="370" as="targetPoint" />
          </mxGeometry>
        </mxCell>
        <mxCell id="_oATwqAIxqEpcUHxz-gz-16" value="" style="rounded=0;whiteSpace=wrap;html=1;direction=south;strokeColor=#FF1717;" parent="1" vertex="1">
          <mxGeometry x="860" y="410" width="10" height="40" as="geometry" />
        </mxCell>
        <mxCell id="_oATwqAIxqEpcUHxz-gz-22" value="" style="endArrow=none;dashed=1;html=1;rounded=0;entryX=0.417;entryY=1;entryDx=0;entryDy=0;entryPerimeter=0;exitX=0.058;exitY=-0.067;exitDx=0;exitDy=0;exitPerimeter=0;" parent="1" edge="1" source="_oATwqAIxqEpcUHxz-gz-41">
          <mxGeometry width="50" height="50" relative="1" as="geometry">
            <mxPoint x="1007.5" y="320" as="sourcePoint" />
            <mxPoint x="1002.5" y="158.33999999999992" as="targetPoint" />
          </mxGeometry>
        </mxCell>
        <mxCell id="_oATwqAIxqEpcUHxz-gz-21" value="" style="rounded=0;whiteSpace=wrap;html=1;direction=south;strokeColor=#FF1717;" parent="1" vertex="1">
          <mxGeometry x="1000" y="150" width="10" height="20" as="geometry" />
        </mxCell>
        <mxCell id="_oATwqAIxqEpcUHxz-gz-27" value="" style="endArrow=classic;html=1;rounded=0;exitX=0;exitY=0;exitDx=0;exitDy=0;entryX=0;entryY=0.75;entryDx=0;entryDy=0;strokeColor=#FF1717;" parent="1" source="_oATwqAIxqEpcUHxz-gz-10" target="_oATwqAIxqEpcUHxz-gz-21" edge="1">
          <mxGeometry width="50" height="50" relative="1" as="geometry">
            <mxPoint x="1070" y="250" as="sourcePoint" />
            <mxPoint x="1120" y="200" as="targetPoint" />
          </mxGeometry>
        </mxCell>
        <mxCell id="_oATwqAIxqEpcUHxz-gz-29" value="" style="endArrow=classic;html=1;rounded=0;exitX=0;exitY=0;exitDx=0;exitDy=0;entryX=0;entryY=0.5;entryDx=0;entryDy=0;strokeColor=#FF1717;" parent="1" edge="1" source="piYtrcWUBoW7gZghlnNr-17">
          <mxGeometry width="50" height="50" relative="1" as="geometry">
            <mxPoint x="860" y="194.5" as="sourcePoint" />
            <mxPoint x="1216.5" y="194.5" as="targetPoint" />
          </mxGeometry>
        </mxCell>
        <mxCell id="_oATwqAIxqEpcUHxz-gz-32" value="" style="endArrow=none;dashed=1;html=1;rounded=0;" parent="1" edge="1" source="piYtrcWUBoW7gZghlnNr-51">
          <mxGeometry width="50" height="50" relative="1" as="geometry">
            <mxPoint x="1005" y="910" as="sourcePoint" />
            <mxPoint x="1005" y="320" as="targetPoint" />
          </mxGeometry>
        </mxCell>
        <mxCell id="_oATwqAIxqEpcUHxz-gz-35" value="Prijavljivanje&lt;br&gt;" style="text;html=1;strokeColor=none;fillColor=none;align=center;verticalAlign=middle;whiteSpace=wrap;rounded=0;" parent="1" vertex="1">
          <mxGeometry x="900" y="130" width="60" height="30" as="geometry" />
        </mxCell>
        <mxCell id="_oATwqAIxqEpcUHxz-gz-40" value="Unos korisničkog imena" style="text;html=1;strokeColor=none;fillColor=none;align=center;verticalAlign=middle;whiteSpace=wrap;rounded=0;" parent="1" vertex="1">
          <mxGeometry x="950" y="240" width="140" height="30" as="geometry" />
        </mxCell>
        <mxCell id="_oATwqAIxqEpcUHxz-gz-41" value="Unos lozinke&lt;br&gt;" style="text;html=1;strokeColor=none;fillColor=none;align=center;verticalAlign=middle;whiteSpace=wrap;rounded=0;" parent="1" vertex="1">
          <mxGeometry x="1000" y="320" width="120" height="30" as="geometry" />
        </mxCell>
        <mxCell id="_oATwqAIxqEpcUHxz-gz-42" value="" style="endArrow=none;dashed=1;html=1;rounded=0;" parent="1" source="_oATwqAIxqEpcUHxz-gz-31" edge="1">
          <mxGeometry width="50" height="50" relative="1" as="geometry">
            <mxPoint x="1220" y="1054" as="sourcePoint" />
            <mxPoint x="1220" y="330" as="targetPoint" />
          </mxGeometry>
        </mxCell>
        <mxCell id="_oATwqAIxqEpcUHxz-gz-43" value="" style="endArrow=none;dashed=1;html=1;rounded=0;entryX=1;entryY=0.5;entryDx=0;entryDy=0;" parent="1" target="_oATwqAIxqEpcUHxz-gz-33" edge="1" source="piYtrcWUBoW7gZghlnNr-21">
          <mxGeometry width="50" height="50" relative="1" as="geometry">
            <mxPoint x="1220" y="1054" as="sourcePoint" />
            <mxPoint x="1215" y="320" as="targetPoint" />
          </mxGeometry>
        </mxCell>
        <mxCell id="_oATwqAIxqEpcUHxz-gz-33" value="" style="rounded=0;whiteSpace=wrap;html=1;direction=south;strokeColor=#FF1717;" parent="1" vertex="1">
          <mxGeometry x="1214" y="410" width="10" height="20" as="geometry" />
        </mxCell>
        <mxCell id="_oATwqAIxqEpcUHxz-gz-44" value="Submit()" style="text;html=1;strokeColor=none;fillColor=none;align=center;verticalAlign=middle;whiteSpace=wrap;rounded=0;" parent="1" vertex="1">
          <mxGeometry x="1010" y="390" width="60" height="30" as="geometry" />
        </mxCell>
        <mxCell id="piYtrcWUBoW7gZghlnNr-3" value="" style="endArrow=classic;html=1;rounded=0;exitX=0;exitY=0;exitDx=0;exitDy=0;entryX=0;entryY=0.75;entryDx=0;entryDy=0;strokeColor=#FF1717;" edge="1" parent="1">
          <mxGeometry width="50" height="50" relative="1" as="geometry">
            <mxPoint x="864" y="409.5" as="sourcePoint" />
            <mxPoint x="1215" y="409.5" as="targetPoint" />
          </mxGeometry>
        </mxCell>
        <mxCell id="piYtrcWUBoW7gZghlnNr-4" value="" style="endArrow=none;dashed=1;html=1;rounded=0;" edge="1" parent="1" source="_oATwqAIxqEpcUHxz-gz-33" target="_oATwqAIxqEpcUHxz-gz-31">
          <mxGeometry width="50" height="50" relative="1" as="geometry">
            <mxPoint x="1219" y="410" as="sourcePoint" />
            <mxPoint x="1220" y="330" as="targetPoint" />
          </mxGeometry>
        </mxCell>
        <mxCell id="_oATwqAIxqEpcUHxz-gz-31" value="" style="rounded=0;whiteSpace=wrap;html=1;direction=south;strokeColor=#FF1717;" parent="1" vertex="1">
          <mxGeometry x="1214" y="340" width="10" height="20" as="geometry" />
        </mxCell>
        <mxCell id="piYtrcWUBoW7gZghlnNr-8" value="" style="endArrow=none;dashed=1;html=1;rounded=0;" edge="1" parent="1" source="_oATwqAIxqEpcUHxz-gz-31">
          <mxGeometry width="50" height="50" relative="1" as="geometry">
            <mxPoint x="1219" y="340" as="sourcePoint" />
            <mxPoint x="1220" y="280" as="targetPoint" />
          </mxGeometry>
        </mxCell>
        <mxCell id="piYtrcWUBoW7gZghlnNr-10" value="" style="endArrow=classic;html=1;rounded=0;exitX=0;exitY=0.75;exitDx=0;exitDy=0;entryX=0;entryY=0.5;entryDx=0;entryDy=0;strokeColor=#FF1717;" edge="1" parent="1" source="_oATwqAIxqEpcUHxz-gz-23">
          <mxGeometry width="50" height="50" relative="1" as="geometry">
            <mxPoint x="870.5" y="280" as="sourcePoint" />
            <mxPoint x="1226.5" y="280" as="targetPoint" />
          </mxGeometry>
        </mxCell>
        <mxCell id="_oATwqAIxqEpcUHxz-gz-23" value="" style="rounded=0;whiteSpace=wrap;html=1;direction=south;strokeColor=#FF1717;" parent="1" vertex="1">
          <mxGeometry x="1215" y="270" width="10" height="20" as="geometry" />
        </mxCell>
        <mxCell id="piYtrcWUBoW7gZghlnNr-12" value="" style="endArrow=classic;html=1;rounded=0;exitX=0;exitY=0.75;exitDx=0;exitDy=0;entryX=0;entryY=0.5;entryDx=0;entryDy=0;strokeColor=#FF1717;" edge="1" parent="1">
          <mxGeometry width="50" height="50" relative="1" as="geometry">
            <mxPoint x="868" y="339" as="sourcePoint" />
            <mxPoint x="1224" y="339" as="targetPoint" />
          </mxGeometry>
        </mxCell>
        <mxCell id="piYtrcWUBoW7gZghlnNr-16" value="" style="rounded=0;whiteSpace=wrap;html=1;direction=south;strokeColor=#FF1717;" vertex="1" parent="1">
          <mxGeometry x="1000" y="190" width="10" height="40" as="geometry" />
        </mxCell>
        <mxCell id="piYtrcWUBoW7gZghlnNr-18" value="" style="endArrow=none;dashed=1;html=1;rounded=0;" edge="1" parent="1" source="_oATwqAIxqEpcUHxz-gz-23">
          <mxGeometry width="50" height="50" relative="1" as="geometry">
            <mxPoint x="1220" y="270" as="sourcePoint" />
            <mxPoint x="1220" y="205" as="targetPoint" />
          </mxGeometry>
        </mxCell>
        <mxCell id="piYtrcWUBoW7gZghlnNr-19" value="" style="endArrow=classic;html=1;rounded=0;exitX=0;exitY=0.75;exitDx=0;exitDy=0;entryX=0;entryY=0.5;entryDx=0;entryDy=0;strokeColor=#FF1717;" edge="1" parent="1">
          <mxGeometry width="50" height="50" relative="1" as="geometry">
            <mxPoint x="867.5" y="270" as="sourcePoint" />
            <mxPoint x="1224" y="270" as="targetPoint" />
          </mxGeometry>
        </mxCell>
        <mxCell id="piYtrcWUBoW7gZghlnNr-20" value="&amp;lt;show&amp;gt;" style="text;html=1;strokeColor=none;fillColor=none;align=center;verticalAlign=middle;whiteSpace=wrap;rounded=0;" vertex="1" parent="1">
          <mxGeometry x="1090" y="170" width="60" height="30" as="geometry" />
        </mxCell>
        <mxCell id="piYtrcWUBoW7gZghlnNr-22" value="" style="endArrow=none;dashed=1;html=1;rounded=0;entryX=1;entryY=0.5;entryDx=0;entryDy=0;" edge="1" parent="1" source="piYtrcWUBoW7gZghlnNr-41" target="piYtrcWUBoW7gZghlnNr-21">
          <mxGeometry width="50" height="50" relative="1" as="geometry">
            <mxPoint x="1220" y="1054" as="sourcePoint" />
            <mxPoint x="1219" y="430" as="targetPoint" />
          </mxGeometry>
        </mxCell>
        <mxCell id="piYtrcWUBoW7gZghlnNr-21" value="" style="rounded=0;whiteSpace=wrap;html=1;direction=south;strokeColor=#FF1717;" vertex="1" parent="1">
          <mxGeometry x="1215" y="470" width="10" height="40" as="geometry" />
        </mxCell>
        <mxCell id="piYtrcWUBoW7gZghlnNr-26" value="" style="endArrow=classic;html=1;rounded=0;exitX=0;exitY=0;exitDx=0;exitDy=0;entryX=0;entryY=0.5;entryDx=0;entryDy=0;strokeColor=#FF1717;" edge="1" parent="1" source="piYtrcWUBoW7gZghlnNr-16" target="piYtrcWUBoW7gZghlnNr-17">
          <mxGeometry width="50" height="50" relative="1" as="geometry">
            <mxPoint x="1010" y="190" as="sourcePoint" />
            <mxPoint x="1216.5" y="194.5" as="targetPoint" />
          </mxGeometry>
        </mxCell>
        <mxCell id="piYtrcWUBoW7gZghlnNr-17" value="" style="rounded=0;whiteSpace=wrap;html=1;direction=south;strokeColor=#FF1717;" vertex="1" parent="1">
          <mxGeometry x="1215" y="190" width="10" height="20" as="geometry" />
        </mxCell>
        <mxCell id="piYtrcWUBoW7gZghlnNr-27" value="" style="endArrow=classic;html=1;rounded=0;exitX=0;exitY=0;exitDx=0;exitDy=0;strokeColor=#FF1717;entryX=0;entryY=0.25;entryDx=0;entryDy=0;" edge="1" parent="1" target="piYtrcWUBoW7gZghlnNr-23">
          <mxGeometry width="50" height="50" relative="1" as="geometry">
            <mxPoint x="1215" y="469" as="sourcePoint" />
            <mxPoint x="1400" y="469" as="targetPoint" />
          </mxGeometry>
        </mxCell>
        <mxCell id="piYtrcWUBoW7gZghlnNr-28" value="login(username, password)" style="text;html=1;strokeColor=none;fillColor=none;align=center;verticalAlign=middle;whiteSpace=wrap;rounded=0;" vertex="1" parent="1">
          <mxGeometry x="1530" y="440" width="180" height="30" as="geometry" />
        </mxCell>
        <mxCell id="piYtrcWUBoW7gZghlnNr-29" value="" style="rounded=0;whiteSpace=wrap;html=1;direction=south;strokeColor=#FF1717;" vertex="1" parent="1">
          <mxGeometry x="1394" y="540" width="10" height="40" as="geometry" />
        </mxCell>
        <mxCell id="piYtrcWUBoW7gZghlnNr-31" value="" style="endArrow=classic;html=1;rounded=0;entryX=0;entryY=1;entryDx=0;entryDy=0;strokeColor=#FF1717;exitX=0;exitY=0.5;exitDx=0;exitDy=0;" edge="1" parent="1" source="piYtrcWUBoW7gZghlnNr-29" target="piYtrcWUBoW7gZghlnNr-30">
          <mxGeometry width="50" height="50" relative="1" as="geometry">
            <mxPoint x="1410" y="540" as="sourcePoint" />
            <mxPoint x="1570" y="540" as="targetPoint" />
          </mxGeometry>
        </mxCell>
        <mxCell id="piYtrcWUBoW7gZghlnNr-32" value="query(..)" style="text;html=1;strokeColor=none;fillColor=none;align=center;verticalAlign=middle;whiteSpace=wrap;rounded=0;" vertex="1" parent="1">
          <mxGeometry x="1620" y="520" width="60" height="30" as="geometry" />
        </mxCell>
        <mxCell id="piYtrcWUBoW7gZghlnNr-34" value="" style="endArrow=none;dashed=1;html=1;rounded=0;entryX=0.5;entryY=1;entryDx=0;entryDy=0;" edge="1" parent="1" target="piYtrcWUBoW7gZghlnNr-33">
          <mxGeometry width="50" height="50" relative="1" as="geometry">
            <mxPoint x="1390" y="1720" as="sourcePoint" />
            <mxPoint x="1395" y="480" as="targetPoint" />
            <Array as="points" />
          </mxGeometry>
        </mxCell>
        <mxCell id="piYtrcWUBoW7gZghlnNr-36" style="edgeStyle=orthogonalEdgeStyle;rounded=0;orthogonalLoop=1;jettySize=auto;html=1;exitX=0.25;exitY=0;exitDx=0;exitDy=0;strokeColor=#FF1717;" edge="1" parent="1" source="piYtrcWUBoW7gZghlnNr-33">
          <mxGeometry relative="1" as="geometry">
            <mxPoint x="1410" y="650" as="targetPoint" />
            <Array as="points">
              <mxPoint x="1430" y="630" />
              <mxPoint x="1430" y="650" />
            </Array>
          </mxGeometry>
        </mxCell>
        <mxCell id="piYtrcWUBoW7gZghlnNr-33" value="" style="rounded=0;whiteSpace=wrap;html=1;direction=south;strokeColor=#FF1717;" vertex="1" parent="1">
          <mxGeometry x="1395" y="620" width="10" height="40" as="geometry" />
        </mxCell>
        <mxCell id="piYtrcWUBoW7gZghlnNr-38" value="generate SID" style="text;html=1;strokeColor=none;fillColor=none;align=center;verticalAlign=middle;whiteSpace=wrap;rounded=0;" vertex="1" parent="1">
          <mxGeometry x="1394" y="605" width="120" height="30" as="geometry" />
        </mxCell>
        <mxCell id="piYtrcWUBoW7gZghlnNr-39" value="" style="rounded=0;whiteSpace=wrap;html=1;direction=south;strokeColor=#FF1717;" vertex="1" parent="1">
          <mxGeometry x="1394" y="700" width="10" height="40" as="geometry" />
        </mxCell>
        <mxCell id="piYtrcWUBoW7gZghlnNr-42" value="" style="endArrow=none;dashed=1;html=1;rounded=0;entryX=1;entryY=0.5;entryDx=0;entryDy=0;" edge="1" parent="1" source="piYtrcWUBoW7gZghlnNr-49" target="piYtrcWUBoW7gZghlnNr-41">
          <mxGeometry width="50" height="50" relative="1" as="geometry">
            <mxPoint x="1220" y="1054" as="sourcePoint" />
            <mxPoint x="1220" y="510" as="targetPoint" />
          </mxGeometry>
        </mxCell>
        <mxCell id="piYtrcWUBoW7gZghlnNr-41" value="" style="rounded=0;whiteSpace=wrap;html=1;direction=south;strokeColor=#FF1717;" vertex="1" parent="1">
          <mxGeometry x="1214" y="700" width="10" height="20" as="geometry" />
        </mxCell>
        <mxCell id="piYtrcWUBoW7gZghlnNr-43" value="" style="endArrow=classic;html=1;rounded=0;strokeColor=#FF1717;exitX=0;exitY=0.75;exitDx=0;exitDy=0;entryX=0;entryY=0.5;entryDx=0;entryDy=0;" edge="1" parent="1" source="piYtrcWUBoW7gZghlnNr-39" target="piYtrcWUBoW7gZghlnNr-41">
          <mxGeometry width="50" height="50" relative="1" as="geometry">
            <mxPoint x="1380" y="700" as="sourcePoint" />
            <mxPoint x="1230" y="700" as="targetPoint" />
            <Array as="points" />
          </mxGeometry>
        </mxCell>
        <mxCell id="piYtrcWUBoW7gZghlnNr-48" value="SID" style="text;html=1;strokeColor=none;fillColor=none;align=center;verticalAlign=middle;whiteSpace=wrap;rounded=0;" vertex="1" parent="1">
          <mxGeometry x="1270" y="680" width="60" height="30" as="geometry" />
        </mxCell>
        <mxCell id="piYtrcWUBoW7gZghlnNr-50" value="" style="endArrow=none;dashed=1;html=1;rounded=0;entryX=1;entryY=0.5;entryDx=0;entryDy=0;" edge="1" parent="1" target="piYtrcWUBoW7gZghlnNr-49">
          <mxGeometry width="50" height="50" relative="1" as="geometry">
            <mxPoint x="1220" y="1710" as="sourcePoint" />
            <mxPoint x="1219" y="720" as="targetPoint" />
          </mxGeometry>
        </mxCell>
        <mxCell id="piYtrcWUBoW7gZghlnNr-49" value="" style="rounded=0;whiteSpace=wrap;html=1;direction=south;strokeColor=#FF1717;" vertex="1" parent="1">
          <mxGeometry x="1214" y="790" width="10" height="40" as="geometry" />
        </mxCell>
        <mxCell id="piYtrcWUBoW7gZghlnNr-52" value="" style="endArrow=none;dashed=1;html=1;rounded=0;" edge="1" parent="1" source="piYtrcWUBoW7gZghlnNr-210" target="piYtrcWUBoW7gZghlnNr-51">
          <mxGeometry width="50" height="50" relative="1" as="geometry">
            <mxPoint x="1010" y="1695.7142857142858" as="sourcePoint" />
            <mxPoint x="1005" y="320" as="targetPoint" />
          </mxGeometry>
        </mxCell>
        <mxCell id="piYtrcWUBoW7gZghlnNr-51" value="" style="rounded=0;whiteSpace=wrap;html=1;direction=south;strokeColor=#FF1717;" vertex="1" parent="1">
          <mxGeometry x="1000" y="790" width="10" height="20" as="geometry" />
        </mxCell>
        <mxCell id="piYtrcWUBoW7gZghlnNr-53" value="" style="endArrow=classic;html=1;rounded=0;strokeColor=#FF1717;exitX=0;exitY=0.75;exitDx=0;exitDy=0;" edge="1" parent="1">
          <mxGeometry width="50" height="50" relative="1" as="geometry">
            <mxPoint x="1215" y="789" as="sourcePoint" />
            <mxPoint x="1010" y="789" as="targetPoint" />
            <Array as="points" />
          </mxGeometry>
        </mxCell>
        <mxCell id="piYtrcWUBoW7gZghlnNr-54" value="SID" style="text;html=1;strokeColor=none;fillColor=none;align=center;verticalAlign=middle;whiteSpace=wrap;rounded=0;" vertex="1" parent="1">
          <mxGeometry x="1080" y="770" width="60" height="30" as="geometry" />
        </mxCell>
        <mxCell id="piYtrcWUBoW7gZghlnNr-55" value="" style="rounded=0;whiteSpace=wrap;html=1;direction=south;strokeColor=#FF1717;" vertex="1" parent="1">
          <mxGeometry x="1000" y="860" width="10" height="40" as="geometry" />
        </mxCell>
        <mxCell id="piYtrcWUBoW7gZghlnNr-57" style="edgeStyle=orthogonalEdgeStyle;rounded=0;orthogonalLoop=1;jettySize=auto;html=1;strokeColor=#FF1717;" edge="1" parent="1">
          <mxGeometry relative="1" as="geometry">
            <mxPoint x="1015" y="1420" as="targetPoint" />
            <mxPoint x="1015" y="1390" as="sourcePoint" />
            <Array as="points">
              <mxPoint x="1017" y="1390" />
              <mxPoint x="1042" y="1390" />
              <mxPoint x="1042" y="1420" />
            </Array>
          </mxGeometry>
        </mxCell>
        <mxCell id="piYtrcWUBoW7gZghlnNr-58" value="&amp;lt;refresh&amp;gt;" style="text;html=1;strokeColor=none;fillColor=none;align=center;verticalAlign=middle;whiteSpace=wrap;rounded=0;" vertex="1" parent="1">
          <mxGeometry x="1010" y="840" width="60" height="30" as="geometry" />
        </mxCell>
        <mxCell id="piYtrcWUBoW7gZghlnNr-177" value="" style="endArrow=none;dashed=1;html=1;rounded=0;" edge="1" parent="1" source="piYtrcWUBoW7gZghlnNr-30" target="piYtrcWUBoW7gZghlnNr-23">
          <mxGeometry width="50" height="50" relative="1" as="geometry">
            <mxPoint x="2014.29" y="1082" as="sourcePoint" />
            <mxPoint x="2014.29" y="130" as="targetPoint" />
          </mxGeometry>
        </mxCell>
        <mxCell id="piYtrcWUBoW7gZghlnNr-23" value="" style="rounded=0;whiteSpace=wrap;html=1;direction=south;strokeColor=#FF1717;" vertex="1" parent="1">
          <mxGeometry x="2010" y="470" width="10" height="20" as="geometry" />
        </mxCell>
        <mxCell id="piYtrcWUBoW7gZghlnNr-178" value="" style="endArrow=none;dashed=1;html=1;rounded=0;" edge="1" parent="1" target="piYtrcWUBoW7gZghlnNr-30">
          <mxGeometry width="50" height="50" relative="1" as="geometry">
            <mxPoint x="2030" y="1720" as="sourcePoint" />
            <mxPoint x="2015" y="490" as="targetPoint" />
          </mxGeometry>
        </mxCell>
        <mxCell id="piYtrcWUBoW7gZghlnNr-30" value="" style="rounded=0;whiteSpace=wrap;html=1;direction=south;strokeColor=#FF1717;" vertex="1" parent="1">
          <mxGeometry x="2010" y="540" width="10" height="20" as="geometry" />
        </mxCell>
        <mxCell id="piYtrcWUBoW7gZghlnNr-179" value="Forma za ažuriranje podataka" style="rounded=0;whiteSpace=wrap;html=1;" vertex="1" parent="1">
          <mxGeometry x="1570" y="40" width="120" height="60" as="geometry" />
        </mxCell>
        <mxCell id="piYtrcWUBoW7gZghlnNr-180" value="Skripta za ažuriranje podataka" style="rounded=0;whiteSpace=wrap;html=1;" vertex="1" parent="1">
          <mxGeometry x="1780" y="40" width="120" height="60" as="geometry" />
        </mxCell>
        <mxCell id="piYtrcWUBoW7gZghlnNr-181" value="" style="endArrow=none;dashed=1;html=1;rounded=0;entryX=0.5;entryY=1;entryDx=0;entryDy=0;" edge="1" parent="1" source="piYtrcWUBoW7gZghlnNr-185" target="piYtrcWUBoW7gZghlnNr-179">
          <mxGeometry width="50" height="50" relative="1" as="geometry">
            <mxPoint x="1640" y="1857.142857142857" as="sourcePoint" />
            <mxPoint x="1470" y="230" as="targetPoint" />
          </mxGeometry>
        </mxCell>
        <mxCell id="piYtrcWUBoW7gZghlnNr-182" value="" style="endArrow=none;dashed=1;html=1;rounded=0;entryX=0.5;entryY=1;entryDx=0;entryDy=0;" edge="1" parent="1" source="piYtrcWUBoW7gZghlnNr-198" target="piYtrcWUBoW7gZghlnNr-180">
          <mxGeometry width="50" height="50" relative="1" as="geometry">
            <mxPoint x="1840" y="1742.857142857143" as="sourcePoint" />
            <mxPoint x="1470" y="200" as="targetPoint" />
          </mxGeometry>
        </mxCell>
        <mxCell id="piYtrcWUBoW7gZghlnNr-184" value="" style="endArrow=none;dashed=1;html=1;rounded=0;" edge="1" parent="1" source="piYtrcWUBoW7gZghlnNr-189" target="piYtrcWUBoW7gZghlnNr-183">
          <mxGeometry width="50" height="50" relative="1" as="geometry">
            <mxPoint x="880" y="1680" as="sourcePoint" />
            <mxPoint x="865" y="450" as="targetPoint" />
          </mxGeometry>
        </mxCell>
        <mxCell id="piYtrcWUBoW7gZghlnNr-183" value="" style="rounded=0;whiteSpace=wrap;html=1;direction=south;strokeColor=#FF1717;" vertex="1" parent="1">
          <mxGeometry x="870" y="990" width="10" height="40" as="geometry" />
        </mxCell>
        <mxCell id="piYtrcWUBoW7gZghlnNr-186" value="" style="endArrow=none;dashed=1;html=1;rounded=0;entryX=0.5;entryY=1;entryDx=0;entryDy=0;" edge="1" parent="1" source="piYtrcWUBoW7gZghlnNr-191" target="piYtrcWUBoW7gZghlnNr-185">
          <mxGeometry width="50" height="50" relative="1" as="geometry">
            <mxPoint x="1640" y="1857.142857142857" as="sourcePoint" />
            <mxPoint x="1630" y="100" as="targetPoint" />
          </mxGeometry>
        </mxCell>
        <mxCell id="piYtrcWUBoW7gZghlnNr-185" value="" style="rounded=0;whiteSpace=wrap;html=1;direction=south;strokeColor=#FF1717;" vertex="1" parent="1">
          <mxGeometry x="1625" y="990" width="10" height="20" as="geometry" />
        </mxCell>
        <mxCell id="piYtrcWUBoW7gZghlnNr-187" value="" style="endArrow=classic;html=1;rounded=0;exitX=0.25;exitY=0;exitDx=0;exitDy=0;strokeColor=#FF1717;" edge="1" parent="1" source="piYtrcWUBoW7gZghlnNr-183">
          <mxGeometry width="50" height="50" relative="1" as="geometry">
            <mxPoint x="1350" y="1130" as="sourcePoint" />
            <mxPoint x="1630" y="1000" as="targetPoint" />
          </mxGeometry>
        </mxCell>
        <mxCell id="piYtrcWUBoW7gZghlnNr-188" value="Izmena željenih podataka" style="text;html=1;strokeColor=none;fillColor=none;align=center;verticalAlign=middle;whiteSpace=wrap;rounded=0;" vertex="1" parent="1">
          <mxGeometry x="1150" y="970" width="160" height="30" as="geometry" />
        </mxCell>
        <mxCell id="piYtrcWUBoW7gZghlnNr-190" value="" style="endArrow=none;dashed=1;html=1;rounded=0;" edge="1" parent="1" target="piYtrcWUBoW7gZghlnNr-189">
          <mxGeometry width="50" height="50" relative="1" as="geometry">
            <mxPoint x="880" y="1680" as="sourcePoint" />
            <mxPoint x="875" y="1030" as="targetPoint" />
          </mxGeometry>
        </mxCell>
        <mxCell id="piYtrcWUBoW7gZghlnNr-189" value="" style="rounded=0;whiteSpace=wrap;html=1;direction=south;strokeColor=#FF1717;" vertex="1" parent="1">
          <mxGeometry x="870" y="1100" width="10" height="40" as="geometry" />
        </mxCell>
        <mxCell id="piYtrcWUBoW7gZghlnNr-192" value="" style="endArrow=none;dashed=1;html=1;rounded=0;entryX=1;entryY=0;entryDx=0;entryDy=0;entryPerimeter=0;" edge="1" parent="1" source="piYtrcWUBoW7gZghlnNr-196" target="piYtrcWUBoW7gZghlnNr-191">
          <mxGeometry width="50" height="50" relative="1" as="geometry">
            <mxPoint x="1640" y="1857.142857142857" as="sourcePoint" />
            <mxPoint x="1625" y="1000" as="targetPoint" />
          </mxGeometry>
        </mxCell>
        <mxCell id="piYtrcWUBoW7gZghlnNr-191" value="" style="rounded=0;whiteSpace=wrap;html=1;direction=south;strokeColor=#FF1717;" vertex="1" parent="1">
          <mxGeometry x="1620" y="1090" width="10" height="20" as="geometry" />
        </mxCell>
        <mxCell id="piYtrcWUBoW7gZghlnNr-193" value="" style="endArrow=classic;html=1;rounded=0;exitX=0.25;exitY=0;exitDx=0;exitDy=0;strokeColor=#FF1717;" edge="1" parent="1">
          <mxGeometry width="50" height="50" relative="1" as="geometry">
            <mxPoint x="880" y="1105" as="sourcePoint" />
            <mxPoint x="1620" y="1100" as="targetPoint" />
          </mxGeometry>
        </mxCell>
        <mxCell id="piYtrcWUBoW7gZghlnNr-194" value="submit()" style="text;html=1;strokeColor=none;fillColor=none;align=center;verticalAlign=middle;whiteSpace=wrap;rounded=0;" vertex="1" parent="1">
          <mxGeometry x="1181" y="1080" width="60" height="30" as="geometry" />
        </mxCell>
        <mxCell id="piYtrcWUBoW7gZghlnNr-197" value="" style="endArrow=none;dashed=1;html=1;rounded=0;entryX=0.5;entryY=1;entryDx=0;entryDy=0;" edge="1" parent="1" source="piYtrcWUBoW7gZghlnNr-203" target="piYtrcWUBoW7gZghlnNr-196">
          <mxGeometry width="50" height="50" relative="1" as="geometry">
            <mxPoint x="1640" y="1857.142857142857" as="sourcePoint" />
            <mxPoint x="1620" y="1100" as="targetPoint" />
          </mxGeometry>
        </mxCell>
        <mxCell id="piYtrcWUBoW7gZghlnNr-196" value="" style="rounded=0;whiteSpace=wrap;html=1;direction=south;strokeColor=#FF1717;" vertex="1" parent="1">
          <mxGeometry x="1625" y="1270" width="10" height="40" as="geometry" />
        </mxCell>
        <mxCell id="piYtrcWUBoW7gZghlnNr-199" value="" style="endArrow=none;dashed=1;html=1;rounded=0;entryX=0.5;entryY=1;entryDx=0;entryDy=0;" edge="1" parent="1" source="piYtrcWUBoW7gZghlnNr-205" target="piYtrcWUBoW7gZghlnNr-198">
          <mxGeometry width="50" height="50" relative="1" as="geometry">
            <mxPoint x="1840" y="1742.857142857143" as="sourcePoint" />
            <mxPoint x="1840" y="100" as="targetPoint" />
          </mxGeometry>
        </mxCell>
        <mxCell id="piYtrcWUBoW7gZghlnNr-198" value="" style="rounded=0;whiteSpace=wrap;html=1;direction=south;strokeColor=#FF1717;" vertex="1" parent="1">
          <mxGeometry x="1835" y="1270" width="10" height="20" as="geometry" />
        </mxCell>
        <mxCell id="piYtrcWUBoW7gZghlnNr-200" value="" style="endArrow=classic;html=1;rounded=0;exitX=0;exitY=0;exitDx=0;exitDy=0;strokeColor=#FF1717;" edge="1" parent="1" source="piYtrcWUBoW7gZghlnNr-196">
          <mxGeometry width="50" height="50" relative="1" as="geometry">
            <mxPoint x="1350" y="1130" as="sourcePoint" />
            <mxPoint x="1840" y="1270" as="targetPoint" />
          </mxGeometry>
        </mxCell>
        <mxCell id="piYtrcWUBoW7gZghlnNr-202" value="save()" style="text;html=1;strokeColor=none;fillColor=none;align=center;verticalAlign=middle;whiteSpace=wrap;rounded=0;" vertex="1" parent="1">
          <mxGeometry x="1700" y="1250" width="60" height="30" as="geometry" />
        </mxCell>
        <mxCell id="piYtrcWUBoW7gZghlnNr-204" value="" style="endArrow=none;dashed=1;html=1;rounded=0;entryX=0.5;entryY=1;entryDx=0;entryDy=0;" edge="1" parent="1" target="piYtrcWUBoW7gZghlnNr-203">
          <mxGeometry width="50" height="50" relative="1" as="geometry">
            <mxPoint x="1640" y="1857.142857142857" as="sourcePoint" />
            <mxPoint x="1625" y="1290" as="targetPoint" />
          </mxGeometry>
        </mxCell>
        <mxCell id="piYtrcWUBoW7gZghlnNr-203" value="" style="rounded=0;whiteSpace=wrap;html=1;direction=south;strokeColor=#FF1717;" vertex="1" parent="1">
          <mxGeometry x="1620" y="1360" width="10" height="40" as="geometry" />
        </mxCell>
        <mxCell id="piYtrcWUBoW7gZghlnNr-206" value="" style="endArrow=none;dashed=1;html=1;rounded=0;entryX=0.5;entryY=1;entryDx=0;entryDy=0;" edge="1" parent="1" target="piYtrcWUBoW7gZghlnNr-205">
          <mxGeometry width="50" height="50" relative="1" as="geometry">
            <mxPoint x="1840" y="1742.857142857143" as="sourcePoint" />
            <mxPoint x="1835" y="1280" as="targetPoint" />
          </mxGeometry>
        </mxCell>
        <mxCell id="piYtrcWUBoW7gZghlnNr-205" value="" style="rounded=0;whiteSpace=wrap;html=1;direction=south;strokeColor=#FF1717;" vertex="1" parent="1">
          <mxGeometry x="1835" y="1360" width="10" height="20" as="geometry" />
        </mxCell>
        <mxCell id="piYtrcWUBoW7gZghlnNr-207" value="" style="endArrow=classic;html=1;rounded=0;exitX=0;exitY=0;exitDx=0;exitDy=0;strokeColor=#FF1717;" edge="1" parent="1">
          <mxGeometry width="50" height="50" relative="1" as="geometry">
            <mxPoint x="1627.5" y="1358.57" as="sourcePoint" />
            <mxPoint x="1832.5" y="1358.57" as="targetPoint" />
          </mxGeometry>
        </mxCell>
        <mxCell id="piYtrcWUBoW7gZghlnNr-208" value="update(..)" style="text;html=1;strokeColor=none;fillColor=none;align=center;verticalAlign=middle;whiteSpace=wrap;rounded=0;" vertex="1" parent="1">
          <mxGeometry x="1700" y="1330" width="60" height="30" as="geometry" />
        </mxCell>
        <mxCell id="piYtrcWUBoW7gZghlnNr-211" value="" style="endArrow=none;dashed=1;html=1;rounded=0;" edge="1" parent="1" target="piYtrcWUBoW7gZghlnNr-210">
          <mxGeometry width="50" height="50" relative="1" as="geometry">
            <mxPoint x="1010" y="1695.7142857142858" as="sourcePoint" />
            <mxPoint x="1005" y="810" as="targetPoint" />
          </mxGeometry>
        </mxCell>
        <mxCell id="piYtrcWUBoW7gZghlnNr-210" value="" style="rounded=0;whiteSpace=wrap;html=1;direction=south;strokeColor=#FF1717;" vertex="1" parent="1">
          <mxGeometry x="1005" y="1390" width="10" height="40" as="geometry" />
        </mxCell>
        <mxCell id="piYtrcWUBoW7gZghlnNr-212" style="edgeStyle=orthogonalEdgeStyle;rounded=0;orthogonalLoop=1;jettySize=auto;html=1;strokeColor=#FF1717;" edge="1" parent="1">
          <mxGeometry relative="1" as="geometry">
            <mxPoint x="1010" y="890" as="targetPoint" />
            <mxPoint x="1010" y="860" as="sourcePoint" />
            <Array as="points">
              <mxPoint x="1012" y="860" />
              <mxPoint x="1037" y="860" />
              <mxPoint x="1037" y="890" />
            </Array>
          </mxGeometry>
        </mxCell>
        <mxCell id="piYtrcWUBoW7gZghlnNr-213" value="&amp;lt;refresh&amp;gt;" style="text;html=1;strokeColor=none;fillColor=none;align=center;verticalAlign=middle;whiteSpace=wrap;rounded=0;" vertex="1" parent="1">
          <mxGeometry x="1010" y="1365" width="60" height="30" as="geometry" />
        </mxCell>
      </root>
    </mxGraphModel>
  </diagram>
  <diagram id="I6QYQxcawzuUhZH18X8g" name="Page-2">
    <mxGraphModel dx="1120" dy="478" grid="1" gridSize="10" guides="1" tooltips="1" connect="1" arrows="1" fold="1" page="1" pageScale="1" pageWidth="827" pageHeight="1169" math="0" shadow="0">
      <root>
        <mxCell id="0" />
        <mxCell id="1" parent="0" />
      </root>
    </mxGraphModel>
  </diagram>
</mxfile>
